<svg width="40" height="40" viewBox="0 0 40 40" fill="none" xmlns="http://www.w3.org/2000/svg">
<path fill-rule="evenodd" clip-rule="evenodd" d="M4 17C4 16.7348 4.10536 16.4804 4.29289 16.2929C4.48043 16.1054 4.73478 16 5 16H27.616C27.8812 16 28.1356 16.1054 28.3231 16.2929C28.5106 16.4804 28.616 16.7348 28.616 17C28.616 17.2652 28.5106 17.5196 28.3231 17.7071C28.1356 17.8946 27.8812 18 27.616 18H5C4.73478 18 4.48043 17.8946 4.29289 17.7071C4.10536 17.5196 4 17.2652 4 17ZM4 9C4 8.73478 4.10536 8.48043 4.29289 8.29289C4.48043 8.10536 4.73478 8 5 8H35C35.2652 8 35.5196 8.10536 35.7071 8.29289C35.8946 8.48043 36 8.73478 36 9C36 9.26522 35.8946 9.51957 35.7071 9.70711C35.5196 9.89464 35.2652 10 35 10H5C4.73478 10 4.48043 9.89464 4.29289 9.70711C4.10536 9.51957 4 9.26522 4 9ZM4 25C4 24.7348 4.10536 24.4804 4.29289 24.2929C4.48043 24.1054 4.73478 24 5 24H35C35.2652 24 35.5196 24.1054 35.7071 24.2929C35.8946 24.4804 36 24.7348 36 25C36 25.2652 35.8946 25.5196 35.7071 25.7071C35.5196 25.8946 35.2652 26 35 26H5C4.73478 26 4.48043 25.8946 4.29289 25.7071C4.10536 25.5196 4 25.2652 4 25ZM4 33C4 32.7348 4.10536 32.4804 4.29289 32.2929C4.48043 32.1054 4.73478 32 5 32H27.616C27.8812 32 28.1356 32.1054 28.3231 32.2929C28.5106 32.4804 28.616 32.7348 28.616 33C28.616 33.2652 28.5106 33.5196 28.3231 33.7071C28.1356 33.8946 27.8812 34 27.616 34H5C4.73478 34 4.48043 33.8946 4.29289 33.7071C4.10536 33.5196 4 33.2652 4 33Z" fill="black"/>
</svg>
