<svg aria-hidden="true" style="position: absolute; width: 0; height: 0; overflow: hidden;" version="1.1" xmlns="http://www.w3.org/2000/svg" xmlns:xlink="http://www.w3.org/1999/xlink">
<defs>
<symbol id="icon-burger-menu" viewBox="0 0 32 32">
<path d="M3.2 13.6c0-0.212 0.084-0.416 0.234-0.566s0.353-0.234 0.566-0.234h18.093c0.212 0 0.416 0.084 0.566 0.234s0.234 0.354 0.234 0.566c0 0.212-0.084 0.416-0.234 0.566s-0.354 0.234-0.566 0.234h-18.093c-0.212 0-0.416-0.084-0.566-0.234s-0.234-0.354-0.234-0.566zM3.2 7.2c0-0.212 0.084-0.416 0.234-0.566s0.353-0.234 0.566-0.234h24c0.212 0 0.416 0.084 0.566 0.234s0.234 0.354 0.234 0.566c0 0.212-0.084 0.416-0.234 0.566s-0.354 0.234-0.566 0.234h-24c-0.212 0-0.416-0.084-0.566-0.234s-0.234-0.354-0.234-0.566zM3.2 20c0-0.212 0.084-0.416 0.234-0.566s0.353-0.234 0.566-0.234h24c0.212 0 0.416 0.084 0.566 0.234s0.234 0.354 0.234 0.566c0 0.212-0.084 0.416-0.234 0.566s-0.354 0.234-0.566 0.234h-24c-0.212 0-0.416-0.084-0.566-0.234s-0.234-0.354-0.234-0.566zM3.2 26.4c0-0.212 0.084-0.416 0.234-0.566s0.353-0.234 0.566-0.234h18.093c0.212 0 0.416 0.084 0.566 0.234s0.234 0.354 0.234 0.566c0 0.212-0.084 0.416-0.234 0.566s-0.354 0.234-0.566 0.234h-18.093c-0.212 0-0.416-0.084-0.566-0.234s-0.234-0.354-0.234-0.566z"></path>
</symbol>
</defs>
</svg>
