<svg width="142" height="64" viewBox="0 0 142 64" fill="none" xmlns="http://www.w3.org/2000/svg">
<path d="M72.1467 33.5204C80.3761 33.5204 87.0476 26.912 87.0476 18.7602C87.0476 10.6084 80.3761 4 72.1467 4C63.9172 4 57.2458 10.6084 57.2458 18.7602C57.2458 26.912 63.9172 33.5204 72.1467 33.5204Z" stroke="#3171AC"/>
<path d="M66.1863 16.2302C66.1863 14.3669 67.7111 12.8564 69.5922 12.8564H74.7011C76.5822 12.8564 78.107 14.3669 78.107 16.2302V21.2909C78.107 23.1542 76.5822 24.6646 74.7011 24.6646H69.5922C67.7111 24.6646 66.1863 23.1542 66.1863 21.2909V16.2302Z" fill="#3171AC" stroke="#142D45"/>
<path d="M11.2468 57.3133C10.4124 57.3133 9.61266 57.2051 8.84776 56.9886C8.08285 56.7623 7.46694 56.472 7.00005 56.1178L7.81959 54.317C8.26662 54.6319 8.79312 54.8927 9.39909 55.0993C10.015 55.2961 10.6359 55.3945 11.2617 55.3945C11.7385 55.3945 12.121 55.3502 12.4091 55.2617C12.7071 55.1632 12.9256 55.0304 13.0647 54.8631C13.2038 54.6959 13.2733 54.504 13.2733 54.2875C13.2733 54.0119 13.1641 53.7955 12.9455 53.638C12.727 53.4708 12.4389 53.338 12.0813 53.2395C11.7236 53.1313 11.3263 53.0329 10.8892 52.9443C10.462 52.8459 10.0299 52.7278 9.5928 52.5901C9.16564 52.4524 8.77325 52.2752 8.41563 52.0587C8.05801 51.8422 7.76496 51.5569 7.53648 51.2026C7.31793 50.8484 7.20866 50.3957 7.20866 49.8447C7.20866 49.2543 7.3676 48.718 7.68549 48.2358C8.01331 47.7439 8.50007 47.3551 9.14577 47.0698C9.80141 46.7746 10.621 46.627 11.6044 46.627C12.2601 46.627 12.9058 46.7056 13.5415 46.8631C14.1773 47.0107 14.7386 47.237 15.2253 47.5421L14.4803 49.3576C13.9935 49.082 13.5068 48.8804 13.02 48.7524C12.5332 48.6147 12.0564 48.5458 11.5895 48.5458C11.1226 48.5458 10.7402 48.6 10.4422 48.7081C10.1441 48.8163 9.93056 48.9591 9.80141 49.1362C9.67227 49.3034 9.6077 49.5003 9.6077 49.7266C9.6077 49.9923 9.71697 50.2088 9.93552 50.376C10.1541 50.5335 10.4422 50.6614 10.7998 50.7598C11.1574 50.8583 11.5498 50.9566 11.9769 51.055C12.414 51.1535 12.8462 51.2665 13.2733 51.3945C13.7104 51.5225 14.1078 51.6946 14.4654 51.9111C14.823 52.1276 15.1111 52.413 15.3296 52.7672C15.5581 53.1214 15.6724 53.5691 15.6724 54.1104C15.6724 54.6909 15.5085 55.2223 15.1806 55.7045C14.8528 56.1867 14.3611 56.5753 13.7054 56.8705C13.0597 57.1657 12.2402 57.3133 11.2468 57.3133ZM20.4361 57.2543C19.4924 57.2543 18.7573 57.0181 18.2308 56.5458C17.7043 56.0636 17.441 55.3502 17.441 54.4056V47.4388H19.7656V54.3761C19.7656 54.7107 19.855 54.9713 20.0338 55.1583C20.2126 55.3355 20.456 55.424 20.7639 55.424C21.1315 55.424 21.4444 55.3256 21.7028 55.1288L22.3286 56.7524C22.0902 56.9197 21.802 57.0477 21.4643 57.1362C21.1365 57.2149 20.7937 57.2543 20.4361 57.2543ZM16.2043 51.1436V49.3724H21.7624V51.1436H16.2043ZM27.2006 57.2543C26.3463 57.2543 25.5864 57.0772 24.9208 56.7229C24.2651 56.3687 23.7436 55.8865 23.3562 55.2764C22.9787 54.6565 22.7899 53.9529 22.7899 53.1657C22.7899 52.3687 22.9787 51.6651 23.3562 51.055C23.7436 50.4351 24.2651 49.9529 24.9208 49.6085C25.5864 49.2543 26.3463 49.0771 27.2006 49.0771C28.045 49.0771 28.8001 49.2543 29.4655 49.6085C30.1312 49.9529 30.6527 50.4302 31.0301 51.0403C31.4077 51.6503 31.5964 52.3588 31.5964 53.1657C31.5964 53.9529 31.4077 54.6565 31.0301 55.2764C30.6527 55.8865 30.1312 56.3687 29.4655 56.7229C28.8001 57.0772 28.045 57.2543 27.2006 57.2543ZM27.2006 55.365C27.588 55.365 27.9358 55.2764 28.2437 55.0993C28.5517 54.9222 28.795 54.6713 28.9738 54.3465C29.1526 54.0119 29.242 53.6184 29.242 53.1657C29.242 52.7033 29.1526 52.3096 28.9738 51.9849C28.795 51.6602 28.5517 51.4093 28.2437 51.2321C27.9358 51.055 27.588 50.9665 27.2006 50.9665C26.8132 50.9665 26.4655 51.055 26.1575 51.2321C25.8497 51.4093 25.6013 51.6602 25.4125 51.9849C25.2337 52.3096 25.1443 52.7033 25.1443 53.1657C25.1443 53.6184 25.2337 54.0119 25.4125 54.3465C25.6013 54.6713 25.8497 54.9222 26.1575 55.0993C26.4655 55.2764 26.8132 55.365 27.2006 55.365ZM37.8887 57.2543C37.2131 57.2543 36.6221 57.1067 36.1155 56.8115C35.6089 56.5163 35.2115 56.0686 34.9234 55.4683C34.6452 54.8583 34.5062 54.0907 34.5062 53.1657C34.5062 52.231 34.6403 51.4634 34.9085 50.8631C35.1767 50.2628 35.5642 49.8152 36.0708 49.52C36.5774 49.2247 37.1833 49.0771 37.8887 49.0771C38.6436 49.0771 39.3192 49.2494 39.9152 49.5938C40.5211 49.9284 40.9979 50.4007 41.3457 51.0107C41.7033 51.6208 41.8821 52.3392 41.8821 53.1657C41.8821 54.0022 41.7033 54.7254 41.3457 55.3355C40.9979 55.9455 40.5211 56.4178 39.9152 56.7524C39.3192 57.0871 38.6436 57.2543 37.8887 57.2543ZM33.1502 59.9997V49.1952H35.3705V50.8189L35.3258 53.1805L35.4748 55.5274V59.9997H33.1502ZM37.4864 55.365C37.8738 55.365 38.2165 55.2764 38.5145 55.0993C38.8224 54.9222 39.0659 54.6713 39.2447 54.3465C39.4333 54.0119 39.5278 53.6184 39.5278 53.1657C39.5278 52.7033 39.4333 52.3096 39.2447 51.9849C39.0659 51.6602 38.8224 51.4093 38.5145 51.2321C38.2165 51.055 37.8738 50.9665 37.4864 50.9665C37.099 50.9665 36.7512 51.055 36.4433 51.2321C36.1353 51.4093 35.892 51.6602 35.7132 51.9849C35.5344 52.3096 35.445 52.7033 35.445 53.1657C35.445 53.6184 35.5344 54.0119 35.7132 54.3465C35.892 54.6713 36.1353 54.9222 36.4433 55.0993C36.7512 55.2764 37.099 55.365 37.4864 55.365Z" fill="#142D45"/>
<path d="M57.514 57.3139C56.7094 57.3139 55.9594 57.1859 55.264 56.9301C54.5786 56.6645 53.9825 56.2906 53.4759 55.8084C52.9693 55.3261 52.5719 54.7604 52.2838 54.1109C52.0056 53.4615 51.8666 52.7481 51.8666 51.9707C51.8666 51.1933 52.0056 50.4799 52.2838 49.8305C52.5719 49.181 52.9693 48.6153 53.4759 48.1331C53.9925 47.6508 54.5935 47.2818 55.2789 47.026C55.9643 46.7604 56.7143 46.6275 57.5289 46.6275C58.433 46.6275 59.2475 46.785 59.9727 47.0999C60.7077 47.4049 61.3237 47.8575 61.8204 48.4578L60.2707 49.8748C59.9131 49.4714 59.5157 49.1711 59.0786 48.9744C58.6416 48.7678 58.1648 48.6644 57.6481 48.6644C57.1613 48.6644 56.7143 48.7431 56.3071 48.9006C55.8998 49.0581 55.5471 49.2844 55.2491 49.5796C54.9511 49.8748 54.7176 50.2241 54.5488 50.6275C54.3898 51.0309 54.3103 51.4788 54.3103 51.9707C54.3103 52.4627 54.3898 52.9105 54.5488 53.3139C54.7176 53.7173 54.9511 54.0667 55.2491 54.3619C55.5471 54.6571 55.8998 54.8833 56.3071 55.0408C56.7143 55.1983 57.1613 55.277 57.6481 55.277C58.1648 55.277 58.6416 55.1785 59.0786 54.9818C59.5157 54.7752 59.9131 54.4652 60.2707 54.0519L61.8204 55.4689C61.3237 56.0692 60.7077 56.5267 59.9727 56.8416C59.2475 57.1564 58.4279 57.3139 57.514 57.3139ZM66.8247 57.2549C65.9704 57.2549 65.2105 57.0777 64.5449 56.7235C63.8892 56.3693 63.3677 55.887 62.9803 55.277C62.6028 54.6571 62.414 53.9535 62.414 53.1663C62.414 52.3692 62.6028 51.6656 62.9803 51.0556C63.3677 50.4357 63.8892 49.9534 64.5449 49.6091C65.2105 49.2548 65.9704 49.0777 66.8247 49.0777C67.6691 49.0777 68.4242 49.2548 69.0896 49.6091C69.7553 49.9534 70.2768 50.4308 70.6542 51.0408C71.0318 51.6509 71.2205 52.3594 71.2205 53.1663C71.2205 53.9535 71.0318 54.6571 70.6542 55.277C70.2768 55.887 69.7553 56.3693 69.0896 56.7235C68.4242 57.0777 67.6691 57.2549 66.8247 57.2549ZM66.8247 55.3656C67.2121 55.3656 67.5599 55.277 67.8678 55.0999C68.1758 54.9228 68.4191 54.6718 68.5979 54.3471C68.7767 54.0125 68.8661 53.619 68.8661 53.1663C68.8661 52.7039 68.7767 52.3102 68.5979 51.9855C68.4191 51.6607 68.1758 51.4098 67.8678 51.2327C67.5599 51.0556 67.2121 50.967 66.8247 50.967C66.4373 50.967 66.0896 51.0556 65.7816 51.2327C65.4738 51.4098 65.2254 51.6607 65.0366 51.9855C64.8578 52.3102 64.7684 52.7039 64.7684 53.1663C64.7684 53.619 64.8578 54.0125 65.0366 54.3471C65.2254 54.6718 65.4738 54.9228 65.7816 55.0999C66.0896 55.277 66.4373 55.3656 66.8247 55.3656ZM72.7743 57.1368V49.1958H74.9946V51.4393L74.6816 50.7899C74.9201 50.229 75.3024 49.8058 75.829 49.5205C76.3555 49.2253 76.9962 49.0777 77.7512 49.0777V51.2032C77.6518 51.1933 77.5624 51.1884 77.483 51.1884C77.4034 51.1785 77.3191 51.1737 77.2297 51.1737C76.5939 51.1737 76.0773 51.3557 75.68 51.7198C75.2926 52.074 75.0989 52.6301 75.0989 53.3877V57.1368H72.7743ZM79.1479 57.1368V49.1958H81.3681V51.4393L81.0552 50.7899C81.2936 50.229 81.6761 49.8058 82.2026 49.5205C82.729 49.2253 83.3698 49.0777 84.1248 49.0777V51.2032C84.0254 51.1933 83.936 51.1884 83.8566 51.1884C83.7772 51.1785 83.6927 51.1737 83.6033 51.1737C82.9674 51.1737 82.451 51.3557 82.0536 51.7198C81.6661 52.074 81.4724 52.6301 81.4724 53.3877V57.1368H79.1479ZM88.9478 57.2549C88.2821 57.2549 87.6861 57.1269 87.1597 56.8711C86.643 56.6153 86.2407 56.2265 85.9527 55.705C85.6645 55.1737 85.5206 54.4996 85.5206 53.6829V49.1958H87.8451V53.3434C87.8451 54.0028 87.9841 54.4898 88.2623 54.8047C88.5504 55.1098 88.9527 55.2622 89.4693 55.2622C89.8269 55.2622 90.1448 55.1884 90.423 55.0408C90.701 54.8833 90.9196 54.6472 91.0786 54.3323C91.2374 54.0076 91.317 53.6042 91.317 53.122V49.1958H93.6415V57.1368H91.4362V54.9523L91.8385 55.587C91.5703 56.138 91.1729 56.5563 90.6465 56.8416C90.1299 57.1171 89.5636 57.2549 88.9478 57.2549ZM100.534 57.2549C99.858 57.2549 99.2669 57.1073 98.7603 56.8121C98.2537 56.5169 97.8563 56.0692 97.5682 55.4689C97.29 54.8588 97.151 54.0913 97.151 53.1663C97.151 52.2315 97.2851 51.464 97.5533 50.8637C97.8215 50.2634 98.209 49.8157 98.7156 49.5205C99.2222 49.2253 99.8282 49.0777 100.534 49.0777C101.289 49.0777 101.964 49.25 102.56 49.5943C103.166 49.9289 103.643 50.4013 103.991 51.0113C104.348 51.6213 104.527 52.3397 104.527 53.1663C104.527 54.0028 104.348 54.726 103.991 55.336C103.643 55.9461 103.166 56.4184 102.56 56.753C101.964 57.0876 101.289 57.2549 100.534 57.2549ZM95.795 60.0003V49.1958H98.0153V50.8194L97.9706 53.181L98.1196 55.5279V60.0003H95.795ZM100.131 55.3656C100.519 55.3656 100.861 55.277 101.159 55.0999C101.467 54.9228 101.711 54.6718 101.889 54.3471C102.078 54.0125 102.173 53.619 102.173 53.1663C102.173 52.7039 102.078 52.3102 101.889 51.9855C101.711 51.6607 101.467 51.4098 101.159 51.2327C100.861 51.0556 100.519 50.967 100.131 50.967C99.7438 50.967 99.3961 51.0556 99.0881 51.2327C98.7801 51.4098 98.5368 51.6607 98.358 51.9855C98.1792 52.3102 98.0898 52.7039 98.0898 53.1663C98.0898 53.619 98.1792 54.0125 98.358 54.3471C98.5368 54.6718 98.7801 54.9228 99.0881 55.0999C99.3961 55.277 99.7438 55.3656 100.131 55.3656ZM109.361 57.2549C108.418 57.2549 107.682 57.0187 107.156 56.5464C106.629 56.0642 106.366 55.3508 106.366 54.4061V47.4393H108.691V54.3766C108.691 54.7112 108.78 54.9719 108.959 55.1589C109.138 55.336 109.381 55.4246 109.689 55.4246C110.057 55.4246 110.37 55.3261 110.628 55.1294L111.254 56.753C111.015 56.9203 110.727 57.0482 110.389 57.1368C110.062 57.2155 109.719 57.2549 109.361 57.2549ZM105.129 51.1441V49.3729H110.687V51.1441H105.129ZM112.559 57.1368V49.1958H114.883V57.1368H112.559ZM113.721 48.0888C113.294 48.0888 112.946 47.9658 112.678 47.7198C112.41 47.4737 112.275 47.1688 112.275 46.8046C112.275 46.4405 112.41 46.1356 112.678 45.8895C112.946 45.6435 113.294 45.5205 113.721 45.5205C114.148 45.5205 114.496 45.6386 114.764 45.8748C115.032 46.101 115.166 46.3962 115.166 46.7604C115.166 47.1441 115.032 47.464 114.764 47.7198C114.506 47.9658 114.158 48.0888 113.721 48.0888ZM120.855 57.2549C120.001 57.2549 119.241 57.0777 118.575 56.7235C117.92 56.3693 117.398 55.887 117.011 55.277C116.633 54.6571 116.444 53.9535 116.444 53.1663C116.444 52.3692 116.633 51.6656 117.011 51.0556C117.398 50.4357 117.92 49.9534 118.575 49.6091C119.241 49.2548 120.001 49.0777 120.855 49.0777C121.699 49.0777 122.454 49.2548 123.12 49.6091C123.786 49.9534 124.307 50.4308 124.685 51.0408C125.062 51.6509 125.251 52.3594 125.251 53.1663C125.251 53.9535 125.062 54.6571 124.685 55.277C124.307 55.887 123.786 56.3693 123.12 56.7235C122.454 57.0777 121.699 57.2549 120.855 57.2549ZM120.855 55.3656C121.242 55.3656 121.59 55.277 121.898 55.0999C122.206 54.9228 122.449 54.6718 122.628 54.3471C122.807 54.0125 122.896 53.619 122.896 53.1663C122.896 52.7039 122.807 52.3102 122.628 51.9855C122.449 51.6607 122.206 51.4098 121.898 51.2327C121.59 51.0556 121.242 50.967 120.855 50.967C120.468 50.967 120.12 51.0556 119.812 51.2327C119.504 51.4098 119.256 51.6607 119.067 51.9855C118.888 52.3102 118.799 52.7039 118.799 53.1663C118.799 53.619 118.888 54.0125 119.067 54.3471C119.256 54.6718 119.504 54.9228 119.812 55.0999C120.12 55.277 120.468 55.3656 120.855 55.3656ZM131.677 49.0777C132.313 49.0777 132.879 49.2057 133.376 49.4615C133.882 49.7075 134.28 50.0913 134.568 50.6128C134.856 51.1245 135 51.7837 135 52.5906V57.1368H132.675V52.9449C132.675 52.3053 132.532 51.833 132.243 51.5279C131.965 51.2228 131.568 51.0703 131.051 51.0703C130.684 51.0703 130.351 51.149 130.053 51.3065C129.765 51.4541 129.536 51.6854 129.367 52.0002C129.209 52.3151 129.129 52.7186 129.129 53.2106V57.1368H126.805V49.1958H129.025V51.3951L128.608 50.7309C128.896 50.1995 129.308 49.7911 129.844 49.5058C130.381 49.2204 130.992 49.0777 131.677 49.0777Z" fill="#3171AC"/>
</svg>
