<svg width="196" height="88" viewBox="0 0 196 88" fill="none" xmlns="http://www.w3.org/2000/svg">
<path d="M97.5505 45.3233C108.678 45.3233 117.698 36.388 117.698 25.3659C117.698 14.3437 108.678 5.40845 97.5505 5.40845C86.4234 5.40845 77.4028 14.3437 77.4028 25.3659C77.4028 36.388 86.4234 45.3233 97.5505 45.3233Z" stroke="white" stroke-width="1.35211"/>
<path d="M89.4915 21.9447C89.4915 19.4254 91.5532 17.3831 94.0966 17.3831H101.004C103.548 17.3831 105.61 19.4254 105.61 21.9447V28.7873C105.61 31.3068 103.548 33.349 101.004 33.349H94.0966C91.5532 33.349 89.4915 31.3068 89.4915 28.7873V21.9447Z" fill="white" stroke="white" stroke-width="1.35211"/>
<path d="M15.2069 77.4948C14.0787 77.4948 12.9974 77.3486 11.9632 77.0558C10.9289 76.7498 10.0961 76.3573 9.46484 75.8783L10.573 73.4435C11.1774 73.8692 11.8893 74.2218 12.7086 74.5012C13.5414 74.7673 14.3809 74.9004 15.2271 74.9004C15.8718 74.9004 16.3889 74.8405 16.7785 74.7208C17.1814 74.5876 17.4769 74.408 17.665 74.1819C17.853 73.9558 17.947 73.6963 17.947 73.4036C17.947 73.031 17.7993 72.7384 17.5038 72.5254C17.2083 72.2993 16.8188 72.1197 16.3352 71.9866C15.8517 71.8403 15.3144 71.7072 14.7234 71.5874C14.1458 71.4543 13.5615 71.2947 12.9705 71.1085C12.393 70.9223 11.8624 70.6828 11.3789 70.39C10.8953 70.0972 10.4991 69.7114 10.1902 69.2325C9.89466 68.7535 9.74691 68.1414 9.74691 67.3964C9.74691 66.5981 9.96182 65.873 10.3916 65.221C10.8349 64.5558 11.4931 64.0302 12.3661 63.6444C13.2526 63.2452 14.3607 63.0457 15.6905 63.0457C16.577 63.0457 17.45 63.152 18.3097 63.365C19.1693 63.5646 19.9282 63.8705 20.5864 64.283L19.579 66.7378C18.9208 66.3652 18.2627 66.0926 17.6045 65.9195C16.9463 65.7333 16.3016 65.6401 15.6703 65.6401C15.039 65.6401 14.5219 65.7134 14.119 65.8597C13.716 66.0059 13.4272 66.1989 13.2526 66.4384C13.078 66.6645 12.9907 66.9308 12.9907 67.2367C12.9907 67.596 13.1384 67.8887 13.4339 68.1148C13.7294 68.3278 14.119 68.5006 14.6025 68.6337C15.086 68.7669 15.6166 68.8998 16.1942 69.0329C16.7852 69.166 17.3694 69.3189 17.947 69.4919C18.538 69.6649 19.0753 69.8976 19.5588 70.1904C20.0424 70.4832 20.4319 70.869 20.7274 71.348C21.0363 71.8269 21.1908 72.4322 21.1908 73.1641C21.1908 73.949 20.9692 74.6675 20.5259 75.3195C20.0827 75.9715 19.4178 76.497 18.5313 76.8961C17.6582 77.2953 16.5501 77.4948 15.2069 77.4948ZM27.6319 77.415C26.3559 77.415 25.362 77.0957 24.6501 76.4571C23.9382 75.805 23.5822 74.8405 23.5822 73.5632V64.1433H26.7253V73.5233C26.7253 73.9758 26.8462 74.3282 27.0879 74.5811C27.3297 74.8205 27.6588 74.9403 28.0752 74.9403C28.5721 74.9403 28.9952 74.8072 29.3446 74.5411L30.1908 76.7365C29.8684 76.9626 29.4788 77.1356 29.0221 77.2554C28.5789 77.3617 28.1155 77.415 27.6319 77.415ZM21.91 69.1526V66.7577H29.4252V69.1526H21.91ZM36.7783 77.415C35.6232 77.415 34.5957 77.1755 33.6957 76.6966C32.8092 76.2176 32.104 75.5656 31.5802 74.7407C31.0698 73.9025 30.8145 72.9511 30.8145 71.8868C30.8145 70.8091 31.0698 69.8577 31.5802 69.0329C32.104 68.1947 32.8092 67.5427 33.6957 67.0771C34.5957 66.5981 35.6232 66.3586 36.7783 66.3586C37.92 66.3586 38.9409 66.5981 39.8407 67.0771C40.7407 67.5427 41.4459 68.1881 41.9562 69.0129C42.4668 69.8378 42.7218 70.7957 42.7218 71.8868C42.7218 72.9511 42.4668 73.9025 41.9562 74.7407C41.4459 75.5656 40.7407 76.2176 39.8407 76.6966C38.9409 77.1755 37.92 77.415 36.7783 77.415ZM36.7783 74.8605C37.3021 74.8605 37.7723 74.7407 38.1886 74.5012C38.6051 74.2617 38.9341 73.9225 39.1758 73.4834C39.4176 73.031 39.5385 72.4989 39.5385 71.8868C39.5385 71.2615 39.4176 70.7293 39.1758 70.2902C38.9341 69.8511 38.6051 69.5119 38.1886 69.2724C37.7723 69.0329 37.3021 68.9131 36.7783 68.9131C36.2544 68.9131 35.7844 69.0329 35.3679 69.2724C34.9517 69.5119 34.6158 69.8511 34.3605 70.2902C34.1188 70.7293 33.9979 71.2615 33.9979 71.8868C33.9979 72.4989 34.1188 73.031 34.3605 73.4834C34.6158 73.9225 34.9517 74.2617 35.3679 74.5012C35.7844 74.7407 36.2544 74.8605 36.7783 74.8605ZM51.2298 77.415C50.3163 77.415 49.5172 77.2154 48.8322 76.8163C48.1472 76.4171 47.6099 75.8118 47.2204 75.0002C46.8442 74.1753 46.6563 73.1375 46.6563 71.8868C46.6563 70.6229 46.8376 69.5851 47.2003 68.7734C47.5629 67.9618 48.0868 67.3565 48.7718 66.9573C49.4568 66.5582 50.276 66.3586 51.2298 66.3586C52.2505 66.3586 53.164 66.5915 53.9699 67.0571C54.7891 67.5095 55.4338 68.1482 55.9041 68.973C56.3876 69.7979 56.6294 70.7692 56.6294 71.8868C56.6294 73.0178 56.3876 73.9957 55.9041 74.8205C55.4338 75.6454 54.7891 76.284 53.9699 76.7365C53.164 77.1889 52.2505 77.415 51.2298 77.415ZM44.8228 81.1271V66.5182H47.8248V68.7136L47.7644 71.9068L47.9659 75.08V81.1271H44.8228ZM50.6858 74.8605C51.2096 74.8605 51.673 74.7407 52.076 74.5012C52.4922 74.2617 52.8215 73.9225 53.0632 73.4834C53.3183 73.031 53.446 72.4989 53.446 71.8868C53.446 71.2615 53.3183 70.7293 53.0632 70.2902C52.8215 69.8511 52.4922 69.5119 52.076 69.2724C51.673 69.0329 51.2096 68.9131 50.6858 68.9131C50.162 68.9131 49.6917 69.0329 49.2755 69.2724C48.859 69.5119 48.53 69.8511 48.2882 70.2902C48.0465 70.7293 47.9256 71.2615 47.9256 71.8868C47.9256 72.4989 48.0465 73.031 48.2882 73.4834C48.53 73.9225 48.859 74.2617 49.2755 74.5012C49.6917 74.7407 50.162 74.8605 50.6858 74.8605Z" fill="white"/>
<path d="M77.7656 77.4946C76.6776 77.4946 75.6636 77.3216 74.7233 76.9757C73.7965 76.6165 72.9906 76.1109 72.3056 75.4589C71.6206 74.8069 71.0832 74.0419 70.6938 73.1638C70.3176 72.2857 70.1296 71.3211 70.1296 70.27C70.1296 69.2188 70.3176 68.2543 70.6938 67.3762C71.0832 66.498 71.6206 65.7331 72.3056 65.0811C73.0041 64.429 73.8167 63.9301 74.7435 63.5842C75.6703 63.225 76.6843 63.0454 77.7858 63.0454C79.0081 63.0454 80.1094 63.2583 81.09 63.684C82.0839 64.0966 82.9168 64.7084 83.5883 65.5201L81.4929 67.436C81.0094 66.8906 80.4721 66.4847 79.8811 66.2186C79.2902 65.9392 78.6455 65.7995 77.9469 65.7995C77.2887 65.7995 76.6843 65.9059 76.1336 66.1188C75.583 66.3318 75.1061 66.6377 74.7032 67.0369C74.3002 67.436 73.9845 67.9084 73.7562 68.4539C73.5412 68.9993 73.4339 69.6048 73.4339 70.27C73.4339 70.9352 73.5412 71.5407 73.7562 72.0861C73.9845 72.6316 74.3002 73.1039 74.7032 73.5031C75.1061 73.9022 75.583 74.2082 76.1336 74.4211C76.6843 74.6341 77.2887 74.7405 77.9469 74.7405C78.6455 74.7405 79.2902 74.6073 79.8811 74.3413C80.4721 74.0619 81.0094 73.6428 81.4929 73.084L83.5883 74.9999C82.9168 75.8116 82.0839 76.4303 81.09 76.8559C80.1094 77.2816 79.0013 77.4946 77.7656 77.4946ZM90.3547 77.4148C89.1996 77.4148 88.1721 77.1753 87.2721 76.6963C86.3856 76.2173 85.6804 75.5653 85.1566 74.7405C84.6462 73.9022 84.391 72.9509 84.391 71.8865C84.391 70.8088 84.6462 69.8575 85.1566 69.0326C85.6804 68.1944 86.3856 67.5424 87.2721 67.0768C88.1721 66.5978 89.1996 66.3583 90.3547 66.3583C91.4965 66.3583 92.5173 66.5978 93.4171 67.0768C94.3171 67.5424 95.0223 68.1878 95.5327 69.0127C96.0432 69.8375 96.2983 70.7955 96.2983 71.8865C96.2983 72.9509 96.0432 73.9022 95.5327 74.7405C95.0223 75.5653 94.3171 76.2173 93.4171 76.6963C92.5173 77.1753 91.4965 77.4148 90.3547 77.4148ZM90.3547 74.8602C90.8785 74.8602 91.3488 74.7405 91.765 74.501C92.1815 74.2615 92.5105 73.9222 92.7523 73.4831C92.994 73.0307 93.1149 72.4986 93.1149 71.8865C93.1149 71.2613 92.994 70.729 92.7523 70.2899C92.5105 69.8509 92.1815 69.5116 91.765 69.2721C91.3488 69.0326 90.8785 68.9129 90.3547 68.9129C89.8309 68.9129 89.3608 69.0326 88.9444 69.2721C88.5281 69.5116 88.1922 69.8509 87.937 70.2899C87.6952 70.729 87.5743 71.2613 87.5743 71.8865C87.5743 72.4986 87.6952 73.0307 87.937 73.4831C88.1922 73.9222 88.5281 74.2615 88.9444 74.501C89.3608 74.7405 89.8309 74.8602 90.3547 74.8602ZM98.3993 77.2551V66.518H101.401V69.5515L100.978 68.6734C101.301 67.915 101.818 67.3428 102.53 66.9571C103.241 66.5579 104.108 66.3583 105.129 66.3583V69.2322C104.994 69.2188 104.873 69.2122 104.766 69.2122C104.658 69.1989 104.544 69.1923 104.423 69.1923C103.564 69.1923 102.865 69.4384 102.328 69.9307C101.804 70.4097 101.542 71.1615 101.542 72.1859V77.2551H98.3993ZM107.017 77.2551V66.518H110.019V69.5515L109.596 68.6734C109.918 67.915 110.435 67.3428 111.147 66.9571C111.859 66.5579 112.725 66.3583 113.746 66.3583V69.2322C113.612 69.2188 113.491 69.2122 113.384 69.2122C113.276 69.1989 113.162 69.1923 113.041 69.1923C112.181 69.1923 111.483 69.4384 110.946 69.9307C110.422 70.4097 110.16 71.1615 110.16 72.1859V77.2551H107.017ZM120.268 77.4148C119.368 77.4148 118.562 77.2417 117.85 76.8959C117.151 76.55 116.607 76.0243 116.218 75.3192C115.828 74.6008 115.634 73.6893 115.634 72.5851V66.518H118.777V72.126C118.777 73.0175 118.965 73.6761 119.341 74.1018C119.73 74.5143 120.274 74.7205 120.973 74.7205C121.456 74.7205 121.886 74.6207 122.262 74.4211C122.638 74.2082 122.934 73.8889 123.149 73.4632C123.363 73.0241 123.471 72.4787 123.471 71.8267V66.518H126.614V77.2551H123.632V74.3014L124.176 75.1596C123.814 75.9046 123.276 76.4702 122.564 76.8559C121.866 77.2285 121.1 77.4148 120.268 77.4148ZM135.933 77.4148C135.019 77.4148 134.22 77.2152 133.535 76.816C132.85 76.4169 132.313 75.8116 131.923 74.9999C131.547 74.1751 131.359 73.1373 131.359 71.8865C131.359 70.6226 131.541 69.5849 131.903 68.7732C132.266 67.9615 132.79 67.3562 133.475 66.9571C134.16 66.5579 134.979 66.3583 135.933 66.3583C136.954 66.3583 137.867 66.5912 138.673 67.0568C139.492 67.5093 140.137 68.1479 140.607 68.9728C141.091 69.7976 141.332 70.7689 141.332 71.8865C141.332 73.0175 141.091 73.9954 140.607 74.8203C140.137 75.6451 139.492 76.2838 138.673 76.7362C137.867 77.1886 136.954 77.4148 135.933 77.4148ZM129.526 81.1268V66.518H132.528V68.7133L132.467 71.9065L132.669 75.0797V81.1268H129.526ZM135.389 74.8602C135.913 74.8602 136.376 74.7405 136.779 74.501C137.195 74.2615 137.524 73.9222 137.766 73.4831C138.021 73.0307 138.149 72.4986 138.149 71.8865C138.149 71.2613 138.021 70.729 137.766 70.2899C137.524 69.8509 137.195 69.5116 136.779 69.2721C136.376 69.0326 135.913 68.9129 135.389 68.9129C134.865 68.9129 134.395 69.0326 133.978 69.2721C133.562 69.5116 133.233 69.8509 132.991 70.2899C132.749 70.729 132.629 71.2613 132.629 71.8865C132.629 72.4986 132.749 73.0307 132.991 73.4831C133.233 73.9222 133.562 74.2615 133.978 74.501C134.395 74.7405 134.865 74.8602 135.389 74.8602ZM147.869 77.4148C146.593 77.4148 145.599 77.0954 144.887 76.4568C144.175 75.8048 143.819 74.8402 143.819 73.563V64.1431H146.962V73.5231C146.962 73.9755 147.083 74.3279 147.325 74.5808C147.567 74.8203 147.896 74.94 148.312 74.94C148.809 74.94 149.232 74.8069 149.581 74.5409L150.428 76.7362C150.105 76.9623 149.716 77.1354 149.259 77.2551C148.816 77.3615 148.352 77.4148 147.869 77.4148ZM142.147 69.1524V66.7575H149.662V69.1524H142.147ZM152.192 77.2551V66.518H155.335V77.2551H152.192ZM153.763 65.0212C153.186 65.0212 152.716 64.8549 152.353 64.5222C151.99 64.1896 151.809 63.7772 151.809 63.2849C151.809 62.7925 151.99 62.3802 152.353 62.0475C152.716 61.7148 153.186 61.5486 153.763 61.5486C154.341 61.5486 154.811 61.7082 155.174 62.0276C155.536 62.3335 155.718 62.7327 155.718 63.225C155.718 63.7439 155.536 64.1764 155.174 64.5222C154.825 64.8549 154.354 65.0212 153.763 65.0212ZM163.41 77.4148C162.255 77.4148 161.227 77.1753 160.327 76.6963C159.441 76.2173 158.736 75.5653 158.212 74.7405C157.701 73.9022 157.446 72.9509 157.446 71.8865C157.446 70.8088 157.701 69.8575 158.212 69.0326C158.736 68.1944 159.441 67.5424 160.327 67.0768C161.227 66.5978 162.255 66.3583 163.41 66.3583C164.552 66.3583 165.572 66.5978 166.472 67.0768C167.372 67.5424 168.077 68.1878 168.588 69.0127C169.098 69.8375 169.353 70.7955 169.353 71.8865C169.353 72.9509 169.098 73.9022 168.588 74.7405C168.077 75.5653 167.372 76.2173 166.472 76.6963C165.572 77.1753 164.552 77.4148 163.41 77.4148ZM163.41 74.8602C163.934 74.8602 164.404 74.7405 164.82 74.501C165.237 74.2615 165.566 73.9222 165.807 73.4831C166.049 73.0307 166.17 72.4986 166.17 71.8865C166.17 71.2613 166.049 70.729 165.807 70.2899C165.566 69.8509 165.237 69.5116 164.82 69.2721C164.404 69.0326 163.934 68.9129 163.41 68.9129C162.886 68.9129 162.416 69.0326 161.999 69.2721C161.583 69.5116 161.247 69.8509 160.992 70.2899C160.75 70.729 160.629 71.2613 160.629 71.8865C160.629 72.4986 160.75 73.0307 160.992 73.4831C161.247 73.9222 161.583 74.2615 161.999 74.501C162.416 74.7405 162.886 74.8602 163.41 74.8602ZM178.042 66.3583C178.902 66.3583 179.668 66.5314 180.339 66.8772C181.024 67.2099 181.562 67.7288 181.951 68.4339C182.341 69.1258 182.535 70.0171 182.535 71.1082V77.2551H179.392V71.5872C179.392 70.7224 179.198 70.0838 178.808 69.6713C178.432 69.2587 177.895 69.0526 177.196 69.0526C176.699 69.0526 176.249 69.159 175.846 69.3719C175.457 69.5715 175.148 69.8842 174.92 70.3099C174.705 70.7356 174.597 71.2812 174.597 71.9464V77.2551H171.454V66.518H174.456V69.4917L173.892 68.5936C174.282 67.8751 174.839 67.3229 175.564 66.9371C176.29 66.5513 177.116 66.3583 178.042 66.3583Z" fill="white"/>
</svg>
