<svg width="14" height="11" viewBox="0 0 14 11" fill="none" xmlns="http://www.w3.org/2000/svg">
<path d="M6.99209 1.03238V10.2131C6.99209 10.2684 6.9692 10.3215 6.92846 10.3606C6.88772 10.3998 6.83247 10.4217 6.77485 10.4217C6.71724 10.4217 6.66198 10.3998 6.62125 10.3606C6.58051 10.3215 6.55762 10.2684 6.55762 10.2131V1.03238C6.55762 0.977045 6.58051 0.923973 6.62125 0.884843C6.66198 0.845713 6.71724 0.82373 6.77485 0.82373C6.83247 0.82373 6.88772 0.845713 6.92846 0.884843C6.9692 0.923973 6.99209 0.977045 6.99209 1.03238ZM5.03697 5.41409H1.21688L2.58384 4.10114C2.6246 4.06199 2.6475 4.00889 2.6475 3.95352C2.6475 3.89815 2.6246 3.84505 2.58384 3.8059C2.54308 3.76675 2.48779 3.74475 2.43014 3.74475C2.3725 3.74475 2.31721 3.76675 2.27645 3.8059L0.538566 5.47512C0.518368 5.4945 0.502345 5.51751 0.491413 5.54284C0.48048 5.56817 0.474854 5.59532 0.474854 5.62274C0.474854 5.65016 0.48048 5.67731 0.491413 5.70264C0.502345 5.72797 0.518368 5.75098 0.538566 5.77036L2.27645 7.43958C2.29663 7.45897 2.32059 7.47435 2.34697 7.48484C2.37334 7.49533 2.4016 7.50073 2.43014 7.50073C2.45869 7.50073 2.48695 7.49533 2.51332 7.48484C2.53969 7.47435 2.56365 7.45897 2.58384 7.43958C2.60402 7.4202 2.62003 7.39718 2.63096 7.37185C2.64188 7.34652 2.6475 7.31938 2.6475 7.29196C2.6475 7.26454 2.64188 7.2374 2.63096 7.21207C2.62003 7.18674 2.60402 7.16372 2.58384 7.14434L1.21688 5.83139H5.03697C5.09458 5.83139 5.14984 5.80941 5.19058 5.77028C5.23132 5.73115 5.25421 5.67808 5.25421 5.62274C5.25421 5.5674 5.23132 5.51433 5.19058 5.4752C5.14984 5.43607 5.09458 5.41409 5.03697 5.41409ZM13.0111 5.47512L11.2733 3.8059C11.2325 3.76675 11.1772 3.74475 11.1196 3.74475C11.0619 3.74475 11.0066 3.76675 10.9659 3.8059C10.9251 3.84505 10.9022 3.89815 10.9022 3.95352C10.9022 4.00889 10.9251 4.06199 10.9659 4.10114L12.3328 5.41409H8.51274C8.45512 5.41409 8.39987 5.43607 8.35913 5.4752C8.31839 5.51433 8.2955 5.5674 8.2955 5.62274C8.2955 5.67808 8.31839 5.73115 8.35913 5.77028C8.39987 5.80941 8.45512 5.83139 8.51274 5.83139H12.3328L10.9659 7.14434C10.9251 7.18349 10.9022 7.23659 10.9022 7.29196C10.9022 7.34733 10.9251 7.40043 10.9659 7.43958C11.0066 7.47873 11.0619 7.50073 11.1196 7.50073C11.1772 7.50073 11.2325 7.47873 11.2733 7.43958L13.0111 5.77036C13.0313 5.75098 13.0474 5.72797 13.0583 5.70264C13.0692 5.67731 13.0749 5.65016 13.0749 5.62274C13.0749 5.59532 13.0692 5.56817 13.0583 5.54284C13.0474 5.51751 13.0313 5.4945 13.0111 5.47512Z" fill="black"/>
</svg>
