<svg width="40" height="40" viewBox="0 0 40 40" fill="none" xmlns="http://www.w3.org/2000/svg">
<g id="ph:plus-thin">
<path id="Vector" d="M34.375 20C34.375 20.1658 34.3091 20.3247 34.1919 20.4419C34.0747 20.5592 33.9158 20.625 33.75 20.625H20.625V33.75C20.625 33.9158 20.5592 34.0747 20.4419 34.1919C20.3247 34.3092 20.1658 34.375 20 34.375C19.8342 34.375 19.6753 34.3092 19.5581 34.1919C19.4408 34.0747 19.375 33.9158 19.375 33.75V20.625H6.25C6.08424 20.625 5.92527 20.5592 5.80806 20.4419C5.69085 20.3247 5.625 20.1658 5.625 20C5.625 19.8342 5.69085 19.6753 5.80806 19.5581C5.92527 19.4408 6.08424 19.375 6.25 19.375H19.375V6.25C19.375 6.08424 19.4408 5.92527 19.5581 5.80806C19.6753 5.69085 19.8342 5.625 20 5.625C20.1658 5.625 20.3247 5.69085 20.4419 5.80806C20.5592 5.92527 20.625 6.08424 20.625 6.25V19.375H33.75C33.9158 19.375 34.0747 19.4408 34.1919 19.5581C34.3091 19.6753 34.375 19.8342 34.375 20Z" fill="white"/>
</g>
</svg>
